<?xml version="1.0" encoding="utf-8"?>
<svg viewBox="0 0 500 500" xmlns="http://www.w3.org/2000/svg">
  <path d="M 155.518 108.503 L 155.518 165.595 C 151.24 164.632 146.89 164.149 142.53 164.153 C 114.748 164.153 94.289 187.388 94.289 225.103 C 94.289 255.123 122.432 262.866 139.969 275.258 C 147.167 280.383 153.489 286.517 159.25 292.384 L 159.335 292.471 L 159.42 292.556 C 169.553 302.705 173.144 307.937 173.144 312.551 L 173.144 314.326 C 170.273 318.133 168.506 323.294 168.506 328.981 L 168.506 371.38 C 168.506 383.088 175.982 392.58 185.204 392.58 L 318.794 392.58 C 328.016 392.58 335.493 383.088 335.493 371.38 L 335.493 328.981 C 335.493 323.294 333.725 318.133 330.854 314.326 L 330.854 312.551 C 330.854 293.546 354.047 268.073 354.047 228.282 L 354.047 214.172 C 354.047 172.738 331.632 148.717 301.199 147.962 C 290.871 139.693 277.552 135.712 264.792 137.372 C 260.739 135.012 256.44 133.248 251.999 132.119 L 251.999 108.503 C 251.999 78.403 230.207 53.384 203.758 53.384 C 177.609 53.384 155.518 78.625 155.518 108.503 Z M 224.168 108.503 L 224.168 168.807 C 232.673 160.303 248.999 159.258 259.566 172.086 C 270.957 164.649 286.019 170.969 290.658 180.649 C 313.345 176.327 326.216 187.325 326.216 214.172 L 326.216 228.282 C 326.216 258.42 305.393 279.433 303.211 307.781 L 200.726 307.781 C 199.008 291.061 188.422 279.317 177.768 268.644 C 170.433 261.174 163.099 254.252 154.648 248.24 C 141.087 238.646 122.12 230.928 122.12 225.102 C 122.12 209.616 127.223 195.952 142.53 195.952 C 162.939 195.952 173.303 213.442 183.349 213.442 L 183.349 108.503 C 183.349 96.297 192.916 85.183 203.758 85.183 C 214.76 85.183 224.168 95.932 224.168 108.503 Z M 298.384 334.281 C 306.07 334.281 312.3 341.4 312.3 350.181 C 312.3 358.962 306.07 366.081 298.384 366.081 C 290.699 366.081 284.469 358.962 284.469 350.181 C 284.469 341.4 290.699 334.281 298.384 334.281 Z" style="fill: rgb(239, 238, 238);"/>
</svg>